<?xml version="1.0" standalone="no"?>
<!DOCTYPE svg PUBLIC "-//W3C//DTD SVG 20010904//EN"
 "http://www.w3.org/TR/2001/REC-SVG-20010904/DTD/svg10.dtd">
<svg version="1.0" xmlns="http://www.w3.org/2000/svg"
 width="512.000000pt" height="512.000000pt" viewBox="0 0 512.000000 512.000000"
 preserveAspectRatio="xMidYMid meet">
<metadata>
Created by potrace 1.15, written by Peter Selinger 2001-2017
</metadata>
<g transform="translate(0.000000,512.000000) scale(0.100000,-0.100000)"
fill="#000000" stroke="none">
<path d="M3397 4407 l-707 -692 94 -94 95 -95 473 466 c260 256 535 525 611
598 l138 133 78 -79 c43 -43 189 -193 326 -332 l249 -253 -104 -105 -105 -105
-157 163 -157 163 -71 -70 -70 -70 157 -157 158 -158 -65 -65 -65 -65 -102
102 -103 103 -70 -70 -70 -70 102 -102 103 -103 -90 -90 -90 -90 -160 160
-160 160 -69 -69 -68 -68 156 -160 155 -160 -65 -64 -64 -64 -103 103 -102
102 -68 -68 -67 -67 193 -193 c106 -105 195 -192 199 -192 9 0 1382 1348 1387
1361 2 6 -71 86 -161 177 -90 92 -319 326 -509 519 l-346 353 -706 -693z"/>
<path d="M980 4395 l-405 -405 1403 -1403 1403 -1402 646 -283 c355 -156 648
-281 650 -278 3 3 -104 308 -237 678 l-243 673 -1406 1412 -1406 1413 -405
-405z m525 -35 l120 -120 -248 -248 -247 -247 -122 123 -123 122 245 245 c135
135 247 245 250 245 3 0 59 -54 125 -120z m2720 -2809 c74 -206 135 -379 135
-385 0 -6 -42 -54 -94 -105 -73 -73 -98 -92 -113 -87 -10 4 -169 73 -353 153
-299 130 -340 150 -383 192 l-47 47 202 -13 c111 -7 204 -10 207 -8 2 3 -10
67 -27 143 -18 75 -32 140 -32 143 0 3 70 -6 155 -21 l155 -27 0 201 0 201 30
-31 c25 -24 56 -102 165 -403z"/>
<path d="M830 1889 c-454 -445 -825 -815 -825 -823 0 -7 227 -245 505 -529
l504 -515 72 67 c120 112 1594 1555 1594 1561 -1 3 -95 102 -210 220 l-209
215 -70 -70 -71 -70 120 -120 119 -119 -86 -81 -86 -80 -173 175 -173 175 -66
-65 c-36 -35 -65 -69 -65 -74 0 -5 76 -87 170 -181 l170 -171 -65 -64 -65 -65
-120 120 -120 120 -67 -67 -67 -67 114 -121 113 -121 -89 -90 -89 -89 -175
175 -175 175 -68 -68 -67 -68 71 -69 c39 -39 116 -119 171 -178 l101 -108 -65
-65 -65 -66 -113 121 c-62 67 -116 121 -119 121 -3 -1 -37 -30 -76 -65 l-70
-65 120 -120 120 -120 -83 -83 -82 -82 -323 329 c-177 181 -323 332 -325 335
-1 4 327 330 730 726 403 395 733 723 733 729 0 6 -40 50 -90 97 l-90 87 -825
-809z"/>
</g>
</svg>
